<?xml version="1.0" encoding="UTF-8" standalone="no"?>
<svg
	baseProfile="full"
	width="100%"
	height="100%"
	viewBox="0 0 800 600"
	xmlns="http://www.w3.org/2000/svg"
	xmlns:xlink="http://www.w3.org/1999/xlink"
	xmlns:ev="http://www.w3.org/2001/xml-events"
	version="1.1"
>
	<!-- <rect fill="silver" x="0" y="0" width="100%" height="100%" /> -->
	<path d="M 10 0 l 80 0 q 5 5 0 10 l -30 30 q -10 10 -20 0 l -30 -30 q -5 -5 0 -10 z" stroke="none" fill="red" vector-effect="non-scaling-stroke" />

	<path d="M10 10 C 20 20, 40 20, 50 10 L 51 11" stroke="black" fill="transparent"/>
	<path d="M70 10 C 70 20, 120 20, 120 10" stroke="black" fill="transparent"/>
	<path d="M130 10 C 120 20, 180 20, 170 10" stroke="black" fill="transparent"/>
	<path d="M10 60 C 20 80, 40 80, 50 60" stroke="black" fill="transparent"/>
	<path d="M70 60 C 70 80, 110 80, 110 60" stroke="black" fill="transparent"/>
	<path d="M130 60 C 120 80, 180 80, 170 60" stroke="black" fill="transparent"/>
	<path d="M10 110 C 20 140, 40 140, 50 110" stroke="black" fill="transparent"/>
	<path d="M70 110 C 70 140, 110 140, 110 110" stroke="black" fill="transparent"/>
	<path d="M130 110 C 120 140, 180 140, 170 110" stroke="black" fill="transparent"/>
  	Sorry, your browser does not support inline SVG.
</svg>
