<?xml version="1.0" ?>
<svg
  id="Layer_1"
  enable-background="new 0 0 64 64"
  viewBox="0 0 64 64"
  height="100%"
  width="100%"

  xml:space="preserve"
  xmlns="http://www.w3.org/2000/svg"
  xmlns:xlink="http://www.w3.org/1999/xlink"
  version="1.1"
>
  <path d="m32 0-6.762 6.762-9.238-2.475-2.475 9.238-9.238 2.475 2.475 9.238-6.762 6.762 6.762 6.762-2.475 9.238 9.238 2.475 2.475 9.238 9.238-2.475 6.762 6.762 6.762-6.762 9.238 2.475 2.475-9.238 9.238-2.475-2.475-9.238 6.762-6.762-6.762-6.762 2.475-9.238-9.238-2.475-2.475-9.238-9.238 2.475-6.762-6.762zm-9.254 17.66c2.183 0 3.876 0.7118 5.078 2.137 1.234 1.425 1.85 3.298 1.85 5.617 0 1.359-0.2059 2.569-0.6172 3.629-0.3797 1.027-0.9172 1.888-1.613 2.584-0.6644 0.6959-1.456 1.227-2.373 1.592-0.8859 0.3314-1.818 0.4961-2.799 0.4961-2.183 0-3.891-0.7118-5.125-2.137-1.234-1.425-1.852-3.298-1.852-5.617 0-1.359 0.2059-2.551 0.6172-3.578 0.4113-1.06 0.9489-1.939 1.613-2.635 0.6644-0.6959 1.456-1.21 2.373-1.541 0.9175-0.3645 1.867-0.5469 2.848-0.5469zm15.57 0.1992h4.08l-16.71 28.23h-4.08l16.71-28.23zm-15.99 2.285c-0.696 0-1.234 0.4157-1.613 1.244-0.348 0.8284-0.5215 2.152-0.5215 3.975 0 1.988 0.2059 3.465 0.6172 4.426 0.4429 0.961 1.059 1.441 1.85 1.441 0.696 0 1.218-0.4157 1.566-1.244 0.3797-0.8284 0.5703-2.154 0.5703-3.977 0-1.988-0.2231-3.463-0.666-4.424-0.4113-0.961-1.012-1.441-1.803-1.441zm19.41 10.14c2.183 0 3.891 0.7118 5.125 2.137 1.234 1.425 1.852 3.298 1.852 5.617 0 1.359-0.2059 2.569-0.6172 3.629-0.4113 1.027-0.9489 1.888-1.613 2.584s-1.456 1.227-2.373 1.592c-0.9175 0.3314-1.867 0.4961-2.848 0.4961-2.183 0-3.891-0.7118-5.125-2.137-1.234-1.425-1.852-3.298-1.852-5.617 0-1.359 0.2059-2.551 0.6172-3.578 0.4113-1.06 0.9489-1.939 1.613-2.635 0.6644-0.6959 1.456-1.21 2.373-1.541 0.9175-0.3645 1.867-0.5469 2.848-0.5469zm-0.3789 2.484c-0.696 0-1.234 0.4157-1.613 1.244-0.348 0.8284-0.5234 2.154-0.5234 3.977 0 1.988 0.2059 3.463 0.6172 4.424 0.4113 0.961 1.014 1.441 1.805 1.441 0.696 0 1.216-0.4157 1.564-1.244 0.3797-0.8284 0.5703-2.17 0.5703-4.025 0-1.955-0.2059-3.412-0.6172-4.373s-1.012-1.443-1.803-1.443z" fill="#fe3d3d"/>
</svg>
