<?xml version="1.0" ?>
<svg 
  enable-background="new 0 0 94 50" 
  viewBox="0 0 94 50" 

  xml:space="preserve" 
  xmlns="http://www.w3.org/2000/svg" 
  xmlns:xlink="http://www.w3.org/1999/xlink"
  version="1.1" 
>
  <g fill="#ff9700">
    <path d="m19.74 42.15 5.207-5.554c0.5507-0.5865 0.5147-1.52-0.0958-2.059l-10.84-9.54 10.84-9.54c0.6105-0.5386 0.6584-1.472 0.09614-2.059l-5.207-5.554c-0.5386-0.5745-1.448-0.6105-2.035-0.06005l-17.25 16.16c-0.6104 0.5626-0.6104 1.532 0 2.095l17.25 16.17c0.5865 0.5506 1.496 0.5267 2.035-0.06019z"/>
    <path d="m74.26 42.15-5.207-5.554c-0.5507-0.5865-0.5147-1.52 0.0958-2.059l10.84-9.54-10.84-9.54c-0.6105-0.5386-0.6584-1.472-0.09614-2.059l5.207-5.554c0.5386-0.5745 1.448-0.6105 2.035-0.06005l17.25 16.16c0.6104 0.5626 0.6104 1.532 0 2.095l-17.25 16.17c-0.5865 0.5506-1.496 0.5267-2.035-0.06019z"/>
    <path d="m52.59 48.44v-9.375c0-0.4558-0.1461-0.8301-0.4394-1.123-0.2933-0.2932-0.6673-0.4394-1.123-0.4394h-9.375c-0.4557 0-0.8301 0.1464-1.123 0.4394-0.2933 0.2932-0.4395 0.6673-0.4395 1.123v9.375c0 0.4558 0.1461 0.8301 0.4395 1.123 0.2933 0.2932 0.6673 0.4395 1.123 0.4395h9.375c0.4557 0 0.8301-0.1462 1.123-0.4395 0.2933-0.2932 0.4394-0.6673 0.4394-1.123zm12.5-32.81c0-2.865-0.9033-5.518-2.71-7.959-1.807-2.441-4.061-4.329-6.763-5.664-2.702-1.335-5.469-2.002-8.301-2.002-7.91 0-13.95 3.467-18.12 10.4-0.4882 0.7813-0.358 1.465 0.3906 2.051l6.445 4.883c0.228 0.1951 0.5371 0.2932 0.9278 0.2932 0.5208 0 0.9278-0.1951 1.221-0.5859 1.725-2.214 3.125-3.711 4.199-4.492 1.107-0.7813 2.507-1.172 4.199-1.172 1.563 0 2.954 0.4232 4.175 1.27 1.221 0.8463 1.831 1.807 1.831 2.881 0 1.237-0.3252 2.23-0.9766 2.979-0.651 0.7487-1.758 1.481-3.32 2.197-2.051 0.9115-3.931 2.319-5.64 4.224-1.709 1.904-2.563 3.947-2.563 6.128v1.758c0 0.4557 0.1461 0.8301 0.4395 1.123 0.2933 0.2932 0.6673 0.4394 1.123 0.4394h9.375c0.4557 0 0.8301-0.146 1.123-0.4394 0.2933-0.2932 0.4394-0.6673 0.4394-1.123 0-0.6185 0.35-1.424 1.05-2.417 0.6998-0.9929 1.587-1.799 2.661-2.417 1.042-0.5859 1.839-1.05 2.393-1.392 0.5535-0.3419 1.302-0.9115 2.246-1.709 0.944-0.7975 1.668-1.579 2.173-2.344 0.5046-0.765 0.9603-1.75 1.367-2.954 0.4069-1.204 0.6103-2.523 0.6103-3.955z"/>
  </g>
</svg>
