<?xml version="1.0" ?>
<svg 
  enable-background="new 0 0 126 14" 
  viewBox="0 0 126 14" 

  xml:space="preserve" 
  xmlns="http://www.w3.org/2000/svg" 
  xmlns:xlink="http://www.w3.org/1999/xlink"
  version="1.1" 
>
  <path d="m4.111 10.13 1.032-1.1c0.1091-0.1162 0.102-0.3012-0.01898-0.408l-2.148-1.89 2.148-1.89c0.121-0.1067 0.1305-0.2917 0.01905-0.408l-1.032-1.1c-0.1067-0.1138-0.2869-0.121-0.4032-0.0119l-3.418 3.202c-0.1209 0.1115-0.1209 0.3036 0 0.4151l3.418 3.204c0.1162 0.1091 0.2964 0.1044 0.4032-0.01193z" fill="#ff9700" stroke-width=".1981"/>
  <path d="m14.91 10.13-1.032-1.1c-0.1091-0.1162-0.102-0.3012 0.01898-0.408l2.148-1.89-2.148-1.89c-0.121-0.1067-0.1305-0.2917-0.01905-0.408l1.032-1.1c0.1067-0.1138 0.2869-0.121 0.4032-0.0119l3.418 3.202c0.1209 0.1115 0.1209 0.3036 0 0.4151l-3.418 3.204c-0.1162 0.1091-0.2964 0.1044-0.4032-0.01193z" fill="#ff9700" stroke-width=".1981"/>
  <path d="m10.62 11.38v-1.858c0-0.09031-0.02895-0.1645-0.08706-0.2225-0.05811-0.0581-0.1322-0.08706-0.2225-0.08706h-1.858c-0.09029 0-0.1645 0.02901-0.2225 0.08706-0.05812 0.0581-0.08708 0.1322-0.08708 0.2225v1.858c0 0.09031 0.02895 0.1645 0.08708 0.2225 0.05812 0.0581 0.1322 0.08708 0.2225 0.08708h1.858c0.09029 0 0.1645-0.02897 0.2225-0.08708 0.05812-0.05809 0.08706-0.1322 0.08706-0.2225zm2.477-6.501c0-0.5677-0.179-1.093-0.537-1.577-0.358-0.4837-0.8047-0.8578-1.34-1.122-0.5354-0.2645-1.084-0.3967-1.645-0.3967-1.567 0-2.764 0.687-3.59 2.061-0.09673 0.1548-0.07094 0.2903 0.0774 0.4064l1.277 0.9675c0.04518 0.03866 0.1064 0.0581 0.1838 0.0581 0.1032 0 0.1838-0.03866 0.2419-0.1161 0.3418-0.4387 0.6192-0.7353 0.832-0.8901 0.2193-0.1548 0.4967-0.2322 0.832-0.2322 0.3097 0 0.5853 0.08385 0.8272 0.2516 0.2419 0.1677 0.3628 0.358 0.3628 0.5708 0 0.2451-0.06444 0.4419-0.1935 0.5903-0.129 0.1483-0.3483 0.2934-0.6578 0.4353-0.4064 0.1806-0.7789 0.4595-1.118 0.837-0.3386 0.3773-0.5078 0.7821-0.5078 1.214v0.3483c0 0.09029 0.02895 0.1645 0.08708 0.2225 0.05812 0.0581 0.1322 0.08706 0.2225 0.08706h1.858c0.09029 0 0.1645-0.02893 0.2225-0.08706 0.05811-0.05809 0.08706-0.1322 0.08706-0.2225 0-0.1226 0.06935-0.2822 0.208-0.4789 0.1387-0.1967 0.3145-0.3565 0.5273-0.4789 0.2065-0.1161 0.3644-0.208 0.4742-0.2758 0.1097-0.06774 0.258-0.1806 0.445-0.3386s0.3305-0.3129 0.4306-0.4644c0.09998-0.1516 0.1903-0.3468 0.2709-0.5853 0.08062-0.2386 0.1209-0.4999 0.1209-0.7837z" fill="#ff9700" stroke-width=".1981"/>
  <path d="m25.36 11.38q-0.4198 0-0.6914-0.3334-0.2716-0.3334-0.4322-0.9754l1.012-0.2099q-0.02469 0.284 0.02469 0.4322 0.06174 0.1482 0.1111 0.1482 0.1358 0 0.3087-0.4568 0.1852-0.4692 0.4322-1.457 0.2469-1 0.5927-2.605 0.3581-1.617 0.8767-3.914-0.02469 0.06174 0 0.08643 0.0247 0.01235 0.0247 0.01235 0-0.01235-0.1235-0.01235-0.1482 0-0.2716 0.07408-0.1235 0.06174-0.2469 0.2469l-0.8273-0.4939q0.09878-0.3334 0.4445-0.5433 0.3581-0.2223 0.8273-0.2223 0.5309 0 0.852 0.3087 0.321 0.2963 0.2222 0.7408-0.5186 2.284-0.8767 3.889-0.3581 1.593-0.6297 2.63-0.2716 1.037-0.5062 1.617-0.2346 0.568-0.5062 0.8026-0.2593 0.2346-0.6174 0.2346zm5.26 0q-0.3828 0-0.6791-0.1605-0.2963-0.1482-0.4445-0.4445-0.1482-0.3087-0.06174-0.7408h0.926q-0.04939 0.2716 0.06174 0.3457 0.1111 0.06174 0.2593 0.06174 0.2222 0 0.3704-0.09878 0.1482-0.09878 0.2963-0.321l0.5186 0.8026q-0.07408 0.1482-0.284 0.2716-0.2099 0.1235-0.4692 0.1976-0.2593 0.08643-0.4939 0.08643zm-1.185-1.346q0.2099-1.062 0.07408-1.741-0.1358-0.6914-0.5186-1.074-0.3828-0.3951-0.9384-0.5433-0.5556-0.1605-1.21-0.1605l0.2099-0.9384q1.321 0 2.148 0.5309 0.8273 0.5186 1.124 1.506 0.3087 0.9878 0.03704 2.42zm-2.593-3.519 0.2099-0.9384q0.5186 0 0.8273-0.1358 0.321-0.1482 0.5309-0.4198 0.2099-0.2716 0.3828-0.6544 0.1852-0.3828 0.4198-0.8643 0.3704-0.7408 0.7161-1.259 0.3581-0.5186 0.7779-0.7902 0.4198-0.284 0.9631-0.2963 0.4815-0.01235 0.8026 0.2469 0.3334 0.2469 0.4445 0.6667 0.1235 0.4198-0.04939 0.9507l-0.9878-0.2099q0.1111-0.3581 0.03704-0.5309-0.07408-0.1852-0.2963-0.1852-0.3951 0.01235-0.6791 0.2593-0.2716 0.2346-0.4815 0.6297-0.2099 0.3951-0.4198 0.8643-0.1976 0.4692-0.4568 0.9384-0.2469 0.4692-0.605 0.8643-0.3581 0.3828-0.8767 0.6297-0.5186 0.2346-1.259 0.2346z" fill="#fff" stroke-width=".1981"/>
  <path d="m34.9 11.38q-1.087 0-1.63-0.3951-0.5433-0.3951-0.6174-1.272-0.07408-0.889 0.2222-2.371 0.2346-1.148 0.7532-2.025 0.5309-0.889 1.272-1.395 0.7408-0.5186 1.58-0.5186 1.087 0 1.642 0.3951 0.5556 0.3951 0.6297 1.284 0.08643 0.8767-0.2469 2.358-0.2469 1.136-0.7779 2.025-0.5309 0.889-1.259 1.408-0.7161 0.5062-1.568 0.5062zm0.09878-0.9384q0.5556 0 1.074-0.3951 0.5309-0.4075 0.926-1.111 0.3951-0.7038 0.568-1.593 0.2346-1.148 0.1976-1.803-0.02469-0.6544-0.3581-0.926-0.3334-0.2716-1.025-0.2716-0.5556 0-1.074 0.4075-0.5062 0.3951-0.9013 1.099-0.3828 0.6914-0.5927 1.593-0.2469 1.148-0.2222 1.803 0.02469 0.6544 0.3704 0.926 0.3457 0.2716 1.037 0.2716z" fill="#fff" stroke-width=".1981"/>
  <path d="m40.02 13.75q-0.6667 0-1.074-0.284-0.3951-0.2716-0.3828-0.7285 0-0.5186 0.5556-0.889 0.568-0.3704 1.617-0.568 1.05-0.1976 2.469-0.1976 0.09878-0.1976 0.1605-0.4815 0.07408-0.284 0.1482-0.5186-0.2099 0.1729-0.5556 0.2963-0.3334 0.1235-0.7161 0.1976-0.3828 0.06174-0.7408 0.06174-1.012 0-1.63-0.5803-0.6174-0.5803-0.6174-1.543-0.01235-0.7532 0.2346-1.494 0.2593-0.7532 0.6914-1.408 0.4445-0.6544 1.012-1.148 0.5803-0.4939 1.21-0.7779 0.6297-0.284 1.247-0.284 0.9384 0 1.445 0.284 0.5062 0.284 0.4815 0.9384 0 0.1111-0.06174 0.4692-0.04939 0.3581-0.1482 0.8643-0.09878 0.5062-0.2222 1.111-0.1235 0.5927-0.2593 1.198t-0.2716 1.161q-0.1358 0.5556-0.2593 1-0.1111 0.4322-0.1976 0.6791 0.284-0.02469 0.5186-0.07408 0.2346-0.04939 0.6174-0.1605l-0.2963 0.9754q-0.2716 0.08643-0.6174 0.1235-0.3334 0.03704-0.6421 0.04939-0.3581 0.5309-0.9384 0.9137-0.568 0.3951-1.284 0.605-0.7161 0.2099-1.494 0.2099zm0.2346-0.9384q0.605 0 1.185-0.2222 0.5927-0.2099 1.025-0.5556-0.8149 0.03704-1.469 0.1358-0.6544 0.1111-1.05 0.2346-0.3951 0.1358-0.4075 0.2593 0 0.04939 0.2099 0.09878 0.2222 0.04939 0.5062 0.04939zm1.333-3.111q0.7532 0 1.21-0.07408 0.4568-0.08643 0.7038-0.3457 0.2469-0.2716 0.3581-0.8026 0.3581-1.729 0.5433-2.63 0.1976-0.9013 0.1976-1.087 0-0.2099-0.09878-0.284-0.08643-0.08643-0.3087-0.1111-0.2099-0.02469-0.6297-0.02469-0.4198 0-0.889 0.2346-0.4692 0.2346-0.9137 0.6544-0.4322 0.4075-0.7902 0.9384-0.3457 0.5186-0.5556 1.099-0.1976 0.5803-0.1852 1.161 0.01235 0.5927 0.3828 0.9384 0.3828 0.3334 0.9754 0.3334z" fill="#fff" stroke-width=".1981"/>
  <path d="m54.33 11.38q-0.5927 0-0.889-0.4322-0.2963-0.4445-0.2716-1.333 0.02469-0.9013 0.4075-2.272l1.358-4.815q0.01235-0.06174 0.01235-0.1111 0.01235-0.04939 0.01235-0.08643 0-0.08643-0.07408-0.1358-0.06174-0.06174-0.1976-0.06174-0.09878 0-0.2469 0.07408-0.1482 0.07408-0.3581 0.2963l-0.4939-0.7902q0.1729-0.2469 0.5433-0.3951 0.3828-0.1605 0.7779-0.1605 0.3581 0 0.6174 0.1852 0.2716 0.1852 0.3951 0.4939 0.1235 0.3087 0 0.7161l-1.383 4.951q-0.2593 0.9137-0.3828 1.494-0.1111 0.568-0.09878 0.8767 0.01235 0.3087 0.1235 0.4198 0.1235 0.1111 0.3704 0.1111 0.2099 0 0.3828-0.1358 0.1852-0.1358 0.3581-0.4568 0.1852-0.3334 0.3704-0.926 0.1976-0.605 0.4075-1.519l1.358-6.038h0.9013l-1.395 6.161q-0.2716 1.198-0.6791 2.074-0.4075 0.8643-0.9013 1.346-0.4939 0.4692-1.025 0.4692zm4.568 0q-0.5062 0-0.7532-0.3704-0.2469-0.3828-0.1482-0.9878l0.4568-2.655 0.9631 0.1235q-0.09878 0.4939-0.1976 0.9137-0.08643 0.4075-0.1605 0.7408-0.06174 0.3334-0.09878 0.568t-0.06174 0.3704q-0.0247 0.1235-0.0247 0.1358-0.01235 0.09878 0.04939 0.1605 0.07408 0.06174 0.1976 0.06174 0.09878 0 0.2346-0.07408 0.1482-0.08643 0.3704-0.3087l0.4939 0.7655q-0.1976 0.2346-0.5556 0.3951-0.3581 0.1605-0.7655 0.1605zm-2.136 0q-0.568 0-0.8396-0.4198-0.2716-0.4198-0.2346-1.309 0.03704-0.889 0.3828-2.297l1.358-6.025h0.9013l-1.395 6.161q-0.2222 0.9754-0.3334 1.568-0.09878 0.5803-0.08643 0.8767 0.01235 0.284 0.1235 0.3828 0.1235 0.08643 0.3457 0.08643 0.2593 0 0.4445-0.1235 0.1976-0.1358 0.3581-0.4692 0.1605-0.3334 0.3087-0.926 0.1605-0.5927 0.3581-1.519l1.259-6.038h1l-1.296 6.161q-0.2469 1.198-0.6421 2.074-0.3951 0.8766-0.9013 1.346t-1.111 0.4692z" fill="#fff" stroke-width=".1981"/>
  <path d="m65.82 3.406q1.074 0 1.58 0.3828 0.5186 0.3828 0.568 1.259 0.06174 0.8767-0.2469 2.395-0.2346 1.148-0.7408 2.05-0.4939 0.889-1.198 1.395-0.7038 0.4939-1.543 0.4939-0.3828 0-0.7161-0.04939t-0.568-0.1358q-0.2222-0.09878-0.3457-0.2469l-0.5803 2.506h-1.012l1.235-5.778q0.01235-0.07408 0.02469-0.1482 0.02469-0.08643 0.04939-0.1852 0.01235-0.04939 0.02469-0.1111 0.01235-0.07408 0.03704-0.1605l0.4815-2.247q0-0.06174 0-0.1111 0.01235-0.06174 0.02469-0.1111-0.01235-0.1235-0.09878-0.1852-0.08643-0.07408-0.2222-0.07408-0.1482 0-0.3087 0.1235-0.1605 0.1111-0.2963 0.321l-0.4322-0.8149q0.1729-0.2593 0.5556-0.4075 0.3951-0.1605 0.7902-0.1605 0.4939 0 0.7532 0.1852t0.2346 0.6421q0.2346-0.2716 0.5556-0.4568 0.3334-0.1852 0.6914-0.2716 0.3581-0.09878 0.7038-0.09878zm0.9631 3.939q0.2593-1.185 0.2593-1.827 0-0.6544-0.321-0.9137t-1-0.2593q-0.5927 0-1.05 0.2593-0.4445 0.2593-0.7655 0.8643-0.321 0.5927-0.5309 1.605l-0.2099 1.025q-0.1605 0.7902-0.1976 1.272-0.02469 0.4692 0.09878 0.7038 0.1358 0.2222 0.4445 0.2963 0.3087 0.07408 0.8273 0.07408 0.5433 0 1.025-0.3951 0.4815-0.3951 0.8396-1.087 0.3704-0.7038 0.5803-1.617z" fill="#fff" stroke-width=".1981"/>
  <path d="m74.08 9.172 0.4692 0.8396q-0.4198 0.4075-0.9754 0.7285-0.5433 0.3087-1.136 0.4692-0.5803 0.1729-1.111 0.1729-0.6297 0-1.124-0.2963-0.4815-0.2963-0.7655-0.8149-0.2716-0.5186-0.2716-1.198 0-1.272 0.284-2.309 0.284-1.05 0.8026-1.79 0.5309-0.7532 1.259-1.161 0.7285-0.4075 1.63-0.4075 0.852 0 1.309 0.4322 0.4568 0.4322 0.4568 1.296 0 0.7161-0.2963 1.247-0.2963 0.5186-0.7902 0.9013-0.4939 0.3828-1.111 0.6544-0.605 0.2716-1.247 0.4692-0.6297 0.1976-1.21 0.3704-0.5803 0.1605-1.012 0.321-0.4198 0.1482-0.5927 0.3334l-0.4198-0.8149q0.1482-0.2346 0.5186-0.3951 0.3828-0.1729 0.9013-0.3087 0.5186-0.1358 1.099-0.284 0.5803-0.1482 1.148-0.3334 0.568-0.1976 1.025-0.4692 0.4692-0.2716 0.7408-0.6544 0.2716-0.3951 0.2716-0.9507 0-0.4198-0.2593-0.6421-0.2593-0.2346-0.6297-0.2346-0.6297 0-1.161 0.3334-0.5309 0.3334-0.926 0.9507-0.3951 0.6174-0.6174 1.482-0.2099 0.8643-0.2099 1.939 0 0.605 0.3951 0.9878 0.4075 0.3704 0.9631 0.3704 0.4322 0 0.9013-0.1605 0.4692-0.1605 0.9137-0.4322 0.4445-0.284 0.7779-0.6421zm0.2963-6.791q-0.5062 0-0.6915-0.2099-0.1852-0.2222-0.07408-0.7038 0.07408-0.3951 0.284-0.5556 0.2222-0.1605 0.6544-0.1605 0.5186 0 0.6914 0.2099 0.1852 0.2099 0.0988 0.6791-0.0864 0.4198-0.3087 0.5803-0.2099 0.1605-0.6544 0.1605zm-2.667 0q-0.5062 0-0.6914-0.2099-0.1852-0.2222-0.07408-0.7038 0.07408-0.3951 0.284-0.5556 0.2222-0.1605 0.6544-0.1605 0.5186 0 0.6914 0.2099 0.1852 0.2099 0.09878 0.6791-0.08643 0.4198-0.3087 0.5803-0.2099 0.1605-0.6544 0.1605z" fill="#fff" stroke-width=".1981"/>
  <path d="m76.4 13.75q-0.6668 0-1.074-0.284-0.3951-0.2716-0.3828-0.7285 0-0.5186 0.5556-0.889 0.568-0.3704 1.617-0.568 1.05-0.1976 2.469-0.1976 0.0988-0.1976 0.1605-0.4815 0.0741-0.284 0.1482-0.5186-0.2099 0.1729-0.5556 0.2963-0.3334 0.1235-0.7161 0.1976-0.3828 0.06174-0.7408 0.06174-1.012 0-1.63-0.5803-0.6174-0.5803-0.6174-1.543-0.0123-0.7532 0.2346-1.494 0.2593-0.7532 0.6914-1.408 0.4445-0.6544 1.012-1.148 0.5803-0.4939 1.21-0.7779 0.6297-0.284 1.247-0.284 0.9384 0 1.445 0.284 0.5062 0.284 0.4815 0.9384 0 0.1111-0.0617 0.4692-0.0494 0.3581-0.1482 0.8643-0.0988 0.5062-0.2222 1.111-0.1235 0.5927-0.2593 1.198t-0.2716 1.161q-0.1358 0.5556-0.2593 1-0.1111 0.4322-0.1976 0.6791 0.284-0.02469 0.5186-0.07408 0.2346-0.04939 0.6174-0.1605l-0.2963 0.9754q-0.2716 0.08643-0.6174 0.1235-0.3334 0.03704-0.642 0.04939-0.3581 0.5309-0.9384 0.9137-0.568 0.3951-1.284 0.605-0.7161 0.2099-1.494 0.2099zm0.2346-0.9384q0.605 0 1.185-0.2222 0.5927-0.2099 1.025-0.5556-0.8149 0.03704-1.469 0.1358-0.6544 0.1111-1.05 0.2346-0.3951 0.1358-0.4075 0.2593 0 0.04939 0.2099 0.09878 0.2222 0.04939 0.5062 0.04939zm1.334-3.111q0.7532 0 1.21-0.07408 0.4568-0.08643 0.7038-0.3457 0.247-0.2716 0.3581-0.8026 0.3581-1.729 0.5433-2.63 0.1976-0.9013 0.1976-1.087 0-0.2099-0.0988-0.284-0.0864-0.08643-0.3087-0.1111-0.2099-0.02469-0.6297-0.02469-0.4198 0-0.889 0.2346t-0.9137 0.6544q-0.4322 0.4075-0.7902 0.9384-0.3457 0.5186-0.5556 1.099-0.1976 0.5803-0.1852 1.161 0.0123 0.5927 0.3828 0.9384 0.3828 0.3334 0.9754 0.3334z" fill="#fff" stroke-width=".1981"/>
  <path d="m83.34 4.789-0.4322-0.8149q0.1729-0.2593 0.5556-0.4075 0.3951-0.1605 0.7902-0.1605 0.4692 0 0.7408 0.2346 0.2716 0.2346 0.2716 0.6297 0.0124 0.3457-0.0988 0.9754-0.0988 0.6297-0.3087 1.457-0.2099 0.8273-0.5433 1.803-0.3457 1.012-0.1235 1.482 0.2222 0.4568 0.9137 0.4568 0.284 0 0.605-0.1976 0.3334-0.1976 0.6421-0.5309 0.321-0.3457 0.605-0.7532 0.284-0.4198 0.4815-0.8767 0.2099-0.4568 0.2963-0.889l0.7532-3.618h1.025l-1.383 6.384q0 0.04939-0.0124 0.1111-0.0123 0.06174-0.0123 0.1111 0.0247 0.1235 0.1111 0.1976 0.0864 0.06174 0.2099 0.06174 0.1111 0 0.2469-0.07408 0.1358-0.08643 0.3704-0.3087l0.4198 0.7532q-0.1605 0.2593-0.5556 0.4075-0.3951 0.1605-0.7902 0.1605-0.3334 0-0.6174-0.1729-0.2716-0.1605-0.3828-0.4445-0.1111-0.284 0-0.6421l0.1111-0.3581q-0.5309 0.7532-1.087 1.185-0.5556 0.4322-1.136 0.4322-1.284 0-1.716-0.7532-0.4198-0.7655 0.0617-2.235 0.284-0.8396 0.4939-1.58 0.2099-0.7408 0.321-1.309 0.1235-0.568 0.0988-0.9013 0-0.1235-0.0988-0.1852-0.0864-0.07408-0.2222-0.07408-0.1482 0-0.3087 0.1235-0.1605 0.1111-0.2963 0.321z" fill="#fff" stroke-width=".1981"/>
  <path d="m91.42 11.21h-0.9878l1.617-7.631h0.9878zm4.988-1.42 0.7655 0.6421q-0.3828 0.4692-0.8396 0.7161-0.4445 0.2346-0.8643 0.2346-0.5186 0-0.7038-0.4198-0.1729-0.4322-0.037-1.358 0.1482-0.926 0.5803-2.408 0.4445-1.494 1.136-3.618h1.05q-0.6791 1.012-1.148 1.815-0.4568 0.7902-0.8149 1.371-0.3457 0.568-0.6914 0.926-0.3334 0.3457-0.7655 0.4692-0.4198 0.1111-1.025 0.01235-0.5927-0.09878-1.482-0.4445l0.2099-0.9631q0.7532 0.3457 1.309 0.4815 0.5556 0.1235 0.9878-0.01235 0.4322-0.1358 0.8026-0.5556 0.3828-0.4322 0.7532-1.198 0.3704-0.7779 0.8273-1.901h0.9754q-0.5433 1.568-0.926 2.828-0.3704 1.247-0.5927 2.148-0.2099 0.9013-0.2963 1.383-0.0864 0.4692-0.0741 0.4692 0.1852 0 0.3828-0.1482 0.2099-0.1482 0.4815-0.4692z" fill="#fff" stroke-width=".1981"/>
  <path d="m98.98 5.851-0.9507-0.284q0.1482-0.6297 0.5186-1.111t0.889-0.7655q0.5186-0.284 1.087-0.284 0.852 0 1.334 0.1976t0.6668 0.5433q0.1852 0.3334 0.1482 0.7655-0.037 0.4322-0.2222 0.9137-0.1852 0.4692-0.4445 0.9384-0.2593 0.4568-0.5433 0.8643-0.7655 1.148-0.9878 1.753-0.2222 0.5927 0.0617 0.8149 0.284 0.2099 1.025 0.2099 0.605 0 1.062-0.3704 0.4568-0.3828 0.568-0.9754l0.9631 0.284q-0.1358 0.5927-0.5186 1.062-0.3828 0.4568-0.926 0.7161-0.5309 0.2593-1.148 0.2593-0.852 0-1.346-0.1976-0.4816-0.1976-0.6668-0.5309-0.1852-0.3457-0.1605-0.7779 0.037-0.4445 0.2222-0.9137 0.1852-0.4692 0.4445-0.9384 0.2717-0.4692 0.5433-0.8643 0.7779-1.136 1-1.741 0.2222-0.605-0.0617-0.8149-0.2716-0.2222-1.012-0.2222-0.3457 0-0.6668 0.1976-0.321 0.1852-0.5556 0.5186-0.2346 0.3334-0.321 0.7532z" fill="#fff" stroke-width=".1981"/>
  <path d="m110.6 9.172 0.4692 0.8396q-0.4198 0.4075-0.9754 0.7285-0.5433 0.3087-1.136 0.4692-0.5803 0.1729-1.111 0.1729-0.6297 0-1.124-0.2963-0.4815-0.2963-0.7655-0.8149-0.2716-0.5186-0.2716-1.198 0-1.272 0.284-2.309 0.284-1.05 0.8026-1.79 0.5309-0.7532 1.259-1.161 0.7285-0.4075 1.63-0.4075 0.852 0 1.309 0.4322 0.4568 0.4322 0.4568 1.296 0 0.7161-0.2963 1.247-0.2963 0.5186-0.7902 0.9013-0.4939 0.3828-1.111 0.6544-0.605 0.2716-1.247 0.4692-0.6297 0.1976-1.21 0.3704-0.5803 0.1605-1.012 0.321-0.4198 0.1482-0.5927 0.3334l-0.4198-0.8149q0.1482-0.2346 0.5186-0.3951 0.3828-0.1729 0.9013-0.3087 0.5186-0.1358 1.099-0.284 0.5803-0.1482 1.148-0.3334 0.568-0.1976 1.025-0.4692 0.4692-0.2716 0.7408-0.6544 0.2716-0.3951 0.2716-0.9507 0-0.4198-0.2593-0.6421-0.2593-0.2346-0.6297-0.2346-0.6297 0-1.161 0.3334-0.5309 0.3334-0.926 0.9507t-0.6174 1.482q-0.2099 0.8643-0.2099 1.939 0 0.605 0.3951 0.9878 0.4075 0.3704 0.9631 0.3704 0.4322 0 0.9013-0.1605t0.9137-0.4322q0.4445-0.284 0.7779-0.6421z" fill="#fff" stroke-width=".1981"/>
  <path d="m116.5 3.406q1.074 0 1.58 0.3828 0.5186 0.3828 0.568 1.259 0.0617 0.8767-0.247 2.395-0.2346 1.148-0.7408 2.05-0.4939 0.889-1.198 1.395-0.7038 0.4939-1.543 0.4939-0.3828 0-0.7161-0.04939-0.3334-0.04939-0.568-0.1358-0.2222-0.09878-0.3457-0.2469l-0.5803 2.506h-1.012l1.235-5.778q0.0123-0.07408 0.0247-0.1482 0.0247-0.08643 0.0494-0.1852 0.0123-0.04939 0.0247-0.1111 0.0123-0.07408 0.037-0.1605l0.4816-2.247q0-0.06174 0-0.1111 0.0123-0.06174 0.0247-0.1111-0.0123-0.1235-0.0988-0.1852-0.0864-0.07408-0.2222-0.07408-0.1482 0-0.3087 0.1235-0.1605 0.1111-0.2963 0.321l-0.4322-0.8149q0.1729-0.2593 0.5556-0.4075 0.3951-0.1605 0.7902-0.1605 0.4939 0 0.7532 0.1852t0.2346 0.6421q0.2346-0.2716 0.5556-0.4568 0.3334-0.1852 0.6914-0.2716 0.3581-0.09878 0.7038-0.09878zm0.9631 3.939q0.2593-1.185 0.2593-1.827 0-0.6544-0.321-0.9137t-1-0.2593q-0.5927 0-1.05 0.2593-0.4445 0.2593-0.7655 0.8643-0.321 0.5927-0.5309 1.605l-0.2099 1.025q-0.1605 0.7902-0.1976 1.272-0.0247 0.4692 0.0988 0.7038 0.1358 0.2222 0.4445 0.2963 0.3087 0.07408 0.8273 0.07408 0.5433 0 1.025-0.3951 0.4815-0.3951 0.8396-1.087 0.3704-0.7038 0.5803-1.617z" fill="#fff" stroke-width=".1981"/>
  <path d="m125.4 9.999 0.4322 0.8149q-0.1605 0.2593-0.5556 0.4075-0.3951 0.1605-0.7902 0.1605-0.4445 0-0.7285-0.2222-0.2716-0.2346-0.284-0.5803-0.0123-0.06174-0.0123-0.1358 0-0.08643 0.0247-0.1111-0.3581 0.4815-0.8643 0.7655-0.4939 0.284-0.9878 0.284-0.6668 0-1.173-0.284-0.4939-0.284-0.7655-0.8026-0.2716-0.5186-0.2716-1.198 0-0.8026 0.2346-1.617 0.2469-0.8149 0.6791-1.543 0.4322-0.7285 0.9631-1.296 0.5433-0.5803 1.148-0.9013 0.605-0.3334 1.198-0.3334 0.9384 0 1.432 0.284 0.4939 0.284 0.4939 0.9384 0.0123 0.06174-0.0123 0.1976-0.0123 0.1235-0.0741 0.4322-0.0617 0.2963-0.1852 0.8643-0.1111 0.5556-0.3087 1.469-0.1852 0.9013-0.4815 2.247-0.0494 0.2963-0.0247 0.4568 0.0247 0.1482 0.3087 0.1482 0.1482 0 0.3087-0.1235 0.1729-0.1235 0.2963-0.321zm-3.679 0.4445q0.4198 0 0.852-0.321 0.4322-0.321 0.7902-0.8643 0.3704-0.5556 0.5927-1.235 0.2716-1.309 0.4568-2.185t0.1852-1.074q0-0.2469-0.2346-0.3334-0.2346-0.08643-0.8026-0.08643-0.3951 0-0.8273 0.284-0.4322 0.284-0.852 0.7655-0.4198 0.4815-0.7532 1.087-0.3334 0.605-0.5309 1.259-0.1976 0.6544-0.2099 1.284 0.0123 0.6297 0.3828 1.025 0.3704 0.3951 0.9507 0.3951z" fill="#fff" stroke-width=".1981"/>
</svg>
