<?xml version="1.0" encoding="UTF-8"?>
<svg
  version="1.1"
  xmlns="http://www.w3.org/2000/svg"
  viewBox="0 0 16 16"
  width="100%"
  height="100%"
>
  <g fill="#fd5e53">
    <path d="m8.73 0c0.167 0.928 0.491 2.04 0.93 3.06-0.00774-0.018-0.0177-0.0328-0.0254-0.0508-0.12 0.0458-0.236 0.0922-0.359 0.137-2.67 0.964-8.39 1.18-2.79 9.55-0.329 0.115-0.659 0.232-1.03 0.34-2.17 0.638-4.04 1.59-5.3 2.97h2.9c0.139-0.101 0.264-0.2 0.414-0.303 0.472 0.0986 1.04 0.208 1.59 0.303h1.67c0.108-0.154 0.0912-0.369-0.158-0.5-0.414-0.218-1.08-0.493-1.64-0.717 1.03-0.584 2.24-1.18 3.66-1.75 6.07-2.47 6.52-4.94 3.37-8.54-0.824-0.942-1.61-2.45-2.07-3.76 1.18 0.0655 2.41 0.166 3.6 0.283-0.376 0.256-0.779 0.517-1.24 0.777-0.472 0.264-0.397 0.671-0.297 0.84 0.119 0.2 0.528 0.459 1.03 0.172 1.29-0.745 2.26-1.57 3.01-2.39v-0.404h-1.18-6.09zm1.45 4.1c0.0745 0.133 0.147 0.27 0.225 0.393 0.42 0.66 0.8 1.42 0.998 2.21-1.29-0.254-2.78-0.549-4.26-0.852 0.746-0.575 1.81-1.04 3.1-1.63-0.0219-0.0376-0.039-0.0846-0.0605-0.123zm-4.05 3.09c1.73 0.0826 3.87 0.28 5.41 0.605-0.00306 0.462-0.0946 0.929-0.291 1.39-1.69-0.162-3.5-0.482-5.22-0.885-0.0333-0.421 0.00547-0.788 0.107-1.11zm0.582 2.61c1.34 0.0116 2.77 0.115 4.02 0.262-0.619 0.798-1.65 1.56-3.23 2.23-0.519-0.968-0.881-1.78-1.12-2.49 0.116-3.35e-4 0.222-0.00688 0.34-0.00586zm1.69 4.49c-0.112 0.00989-0.217 0.0573-0.262 0.0918-0.188 0.146-0.375 0.364-0.277 0.668 0.079 0.246 0.189 0.586 0.301 0.941h1.4c-0.286-0.559-0.59-1.09-0.867-1.57-0.065-0.113-0.183-0.141-0.295-0.131z"/>
  </g>
</svg>
