<?xml version="1.0" encoding="UTF-8"?>
<svg
  version="1.1"
  xmlns="http://www.w3.org/2000/svg"
  viewBox="0 0 100 100"
  width="100%"
  height="100%"
>
  <g fill="#fd5e53">
    <path d="m86 2c-0.883 2.2-6.26 7.67-15.7 13-2.1 1.17-1.77 2.99-1.32 3.74 0.529 0.892 2.35 2.04 4.57 0.766 9.3-5.37 15.2-11.6 18.5-17.5z"/>
    <path d="m51.9 71.1c-0.836 0.652-1.66 1.62-1.23 2.97 1.67 5.22 5.76 17.2 5.37 24h6.92c1.4-9.56-4.33-19.4-8.59-26.8-0.578-1-2.08-0.478-2.48-0.171z"/>
    <path d="m58.6 20.4c-0.533 0.204-1.05 0.413-1.6 0.611-11.9 4.29-37.4 5.25-12.4 42.5 1.6-0.56 3.1-1.14 4.49-1.73-13.6-25.4-4.7-28.2 12.2-36-0.962-1.65-1.86-3.49-2.67-5.41zm-0.598-18.4h-4c0 6 3.38 17.7 8 25 7 11 12 28-22 38-17.7 5.2-31 15-31 33h41c2 0 1.98-2.69 0-3s-31-4-31-4c0-6 11.6-16.5 35-26 27-11 29-22 15-38-5.66-6.47-11-19-11-25z"/>
    <path d="m57 5c7.77 1.52 18.8 2.32 27 2 1.94-0.0763-1.07 5.2-3 5-7.42-0.773-17.4-1.73-25-2-1.7-0.0591-0.668-5.33 1-5z"/>
    <path d="m51 27c5.61 1.27 13.2 3.3 19 4 1.32 0.159 1.3 4.3 0 4-7.66-1.79-16.5-2.93-27-4-2.97-0.303 5.09-4.66 8-4z"/>
    <path d="m70 42c-6.79-1.4-21.4-4.1-30-6-2.48-0.548-5.54 6.95-3 7 9.49 0.195 25.6 1.56 33 4 1.58 0.522 1.63-4.66 0-5z"/>
    <path d="m40 49c9.03 1.89 19.1 3.43 28 4 1.2 0.0768-0.805 3.13-2 3-7.47-0.825-17.3-1.31-25-1-2.03 0.0802-2.98-6.42-1-6z"/>
    <path d="m33 71s8.26 3.04 12 5c1.87 0.98 1.04 3.14-1 3-5.25-0.372-17-3-17-3z"/>
    <path d="m15.4 80.3s7.21 1.51 11.1 3.06c1.96 0.777 1.37 3.02-0.678 3.09-5.26 0.184-14-0.49-14-0.49z"/>
    <path d="m60 93.1s-17.1-3.02-25-5.31c-2.02-0.592-1.37-3.08 0.678-3.09 10.6-0.0549 24.4 1.05 24.4 1.05z"/>
    <path d="m33 71s8.26 3.04 12 5c1.87 0.98 1.04 3.14-1 3-5.25-0.372-17-3-17-3z"/>
    <path d="m15.4 80.3s7.21 1.51 11.1 3.06c1.96 0.777 1.37 3.02-0.678 3.09-5.26 0.184-14-0.49-14-0.49z"/>
    <path d="m60 93.1s-17.1-3.02-25-5.31c-2.02-0.592-1.37-3.08 0.678-3.09 10.6-0.0549 24.4 1.05 24.4 1.05z"/>
  </g>
</svg>
